<?xml version="1.0" encoding="UTF-8"?>
<!DOCTYPE svg PUBLIC "-//W3C//DTD SVG 1.1//EN" "http://www.w3.org/Graphics/SVG/1.1/DTD/svg11.dtd">
<!--Generated by Origin-->
<svg xmlns="http://www.w3.org/2000/svg" xmlns:xlink="http://www.w3.org/1999/xlink" xmlns:olab="http://www.originlab.com/namespaces/olab" viewBox="0,0 1545,1095" width="272.288545mm" height="193.040386mm">
	<svg xmlns="http://www.w3.org/2000/svg" xmlns:xlink="http://www.w3.org/1999/xlink" xmlns:olab="http://www.originlab.com/namespaces/olab" viewBox="0,0 6432.99,4560.99" width="1542.999877" height="1093.999877" x="0.000122" y="0.000122" preserveAspectRatio="none">
		<polygon points="3216,2573 3550,1814 3427,1801 3303,1794 3215,1792" fill-rule="evenodd" fill="#BADE86"/>
		<polygon points="3216,2573 3550,1814 3427,1801 3303,1794 3215,1792" fill="none" style="stroke-width: 8;stroke-linecap: round;stroke-dashoffset: 0;stroke-miterlimit:10;stroke-linejoin: round;stroke: white"/>
		<polygon points="3215,1792 3216,2573 3216,2176 3215,1395" fill-rule="evenodd" fill="#4A5835"/>
		<polygon points="3215,1792 3216,2573 3216,2176 3215,1395" fill="none" style="stroke-width: 8;stroke-linecap: round;stroke-dashoffset: 0;stroke-miterlimit:10;stroke-linejoin: round;stroke: white"/>
		<polygon points="3550,1814 3216,2573 3216,2176 3550,1417" fill-rule="evenodd" fill="#A9CA79"/>
		<polygon points="3550,1814 3216,2573 3216,2176 3550,1417" fill="none" style="stroke-width: 8;stroke-linecap: round;stroke-dashoffset: 0;stroke-miterlimit:10;stroke-linejoin: round;stroke: white"/>
		<polygon points="3216,2176 3550,1417 3427,1404 3303,1397 3215,1395" fill-rule="evenodd" fill="#BADE86"/>
		<polygon points="3216,2176 3550,1417 3427,1404 3303,1397 3215,1395" fill="none" style="stroke-width: 8;stroke-linecap: round;stroke-dashoffset: 0;stroke-miterlimit:10;stroke-linejoin: round;stroke: white"/>
		<polygon points="3216,2573 3215,1792 3091,1795 2967,1804 2845,1819 2726,1840 2610,1866 2499,1897 2394,1934 2392,1934" fill-rule="evenodd" fill="#7CA0D4"/>
		<polygon points="3216,2573 3215,1792 3091,1795 2967,1804 2845,1819 2726,1840 2610,1866 2499,1897 2394,1934 2392,1934" fill="none" style="stroke-width: 8;stroke-linecap: round;stroke-dashoffset: 0;stroke-miterlimit:10;stroke-linejoin: round;stroke: white"/>
		<polygon points="3215,1792 3216,2573 3216,2176 3215,1395" fill-rule="evenodd" fill="#314054"/>
		<polygon points="3215,1792 3216,2573 3216,2176 3215,1395" fill="none" style="stroke-width: 8;stroke-linecap: round;stroke-dashoffset: 0;stroke-miterlimit:10;stroke-linejoin: round;stroke: white"/>
		<polygon points="2392,1934 3216,2573 3216,2176 2392,1537" fill-rule="evenodd" fill="#314054"/>
		<polygon points="2392,1934 3216,2573 3216,2176 2392,1537" fill="none" style="stroke-width: 8;stroke-linecap: round;stroke-dashoffset: 0;stroke-miterlimit:10;stroke-linejoin: round;stroke: white"/>
		<polygon points="3216,2176 3215,1395 3091,1398 2967,1407 2845,1422 2726,1443 2610,1469 2499,1500 2394,1537 2392,1537" fill-rule="evenodd" fill="#7CA0D4"/>
		<polygon points="3216,2176 3215,1395 3091,1398 2967,1407 2845,1422 2726,1443 2610,1469 2499,1500 2394,1537 2392,1537" fill="none" style="stroke-width: 8;stroke-linecap: round;stroke-dashoffset: 0;stroke-miterlimit:10;stroke-linejoin: round;stroke: white"/>
		<polygon points="3216,2573 3473,3340 3595,3325 3714,3304 3829,3277 3939,3246 4044,3209 4143,3167 4234,3121 4318,3070 4394,3016 4460,2958 4517,2898 4564,2835 4601,2770 4627,2703 4643,2636 4648,2568 4641,2500 4624,2432 4597,2366 4558,2301 4510,2239 4451,2178 4384,2121 4307,2067 4222,2018 4129,1972 4030,1931 3924,1895 3813,1864 3697,1838 3578,1818 3550,1814" fill-rule="evenodd" fill="#073E7F"/>
		<polygon points="3216,2573 3473,3340 3595,3325 3714,3304 3829,3277 3939,3246 4044,3209 4143,3167 4234,3121 4318,3070 4394,3016 4460,2958 4517,2898 4564,2835 4601,2770 4627,2703 4643,2636 4648,2568 4641,2500 4624,2432 4597,2366 4558,2301 4510,2239 4451,2178 4384,2121 4307,2067 4222,2018 4129,1972 4030,1931 3924,1895 3813,1864 3697,1838 3578,1818 3550,1814" fill="none" style="stroke-width: 8;stroke-linecap: round;stroke-dashoffset: 0;stroke-miterlimit:10;stroke-linejoin: round;stroke: white"/>
		<polygon points="3550,1814 3216,2573 3216,2176 3550,1417" fill-rule="evenodd" fill="#063873"/>
		<polygon points="3550,1814 3216,2573 3216,2176 3550,1417" fill="none" style="stroke-width: 8;stroke-linecap: round;stroke-dashoffset: 0;stroke-miterlimit:10;stroke-linejoin: round;stroke: white"/>
		<polygon points="3473,3340 3216,2573 3216,2176 3473,2943" fill-rule="evenodd" fill="#021832"/>
		<polygon points="3473,3340 3216,2573 3216,2176 3473,2943" fill="none" style="stroke-width: 8;stroke-linecap: round;stroke-dashoffset: 0;stroke-miterlimit:10;stroke-linejoin: round;stroke: white"/>
		<defs>
			<linearGradient gradientUnits="userSpaceOnUse" x1="1783.000000" y1="2177.000000" x2="4649.000000" y2="2177.000000" gradientTransform="matrix(0.999999 -0 -0 0.999999 -0.000920857 -0.00122781)" id="Grad_1">
				<stop offset="0.000000" stop-color="#05346b"/>
				<stop offset="0.000000" stop-color="#05346b"/>
				<stop offset="0.699581" stop-color="#021832"/>
				<stop offset="1.000000" stop-color="#021832"/>
			</linearGradient>
		</defs>
		<polygon points="3473,2944 3595,2929 3714,2908 3829,2881 3939,2850 4044,2813 4143,2771 4234,2725 4318,2674 4394,2620 4460,2562 4517,2502 4564,2439 4601,2374 4627,2307 4643,2240 4648,2177 4648,2573 4643,2636 4627,2703 4601,2770 4564,2835 4517,2898 4460,2958 4394,3016 4318,3070 4234,3121 4143,3167 4044,3209 3939,3246 3829,3277 3714,3304 3595,3325 3473,3340" fill-rule="evenodd" fill="url(#Grad_1)"/>
		<polygon points="3473,2944 3595,2929 3714,2908 3829,2881 3939,2850 4044,2813 4143,2771 4234,2725 4318,2674 4394,2620 4460,2562 4517,2502 4564,2439 4601,2374 4627,2307 4643,2240 4648,2177 4648,2573 4643,2636 4627,2703 4601,2770 4564,2835 4517,2898 4460,2958 4394,3016 4318,3070 4234,3121 4143,3167 4044,3209 3939,3246 3829,3277 3714,3304 3595,3325 3473,3340" fill="none" style="stroke-width: 8;stroke-linecap: round;stroke-dashoffset: 0;stroke-miterlimit:10;stroke-linejoin: round;stroke: white"/>
		<polygon points="3216,2176 3473,2943 3595,2928 3714,2907 3829,2880 3939,2849 4044,2812 4143,2770 4234,2724 4318,2673 4394,2619 4460,2561 4517,2501 4564,2438 4601,2373 4627,2306 4643,2239 4648,2171 4641,2103 4624,2035 4597,1969 4558,1904 4510,1842 4451,1781 4384,1724 4307,1670 4222,1621 4129,1575 4030,1534 3924,1498 3813,1467 3697,1441 3578,1421 3550,1417" fill-rule="evenodd" fill="#073E7F"/>
		<polygon points="3216,2176 3473,2943 3595,2928 3714,2907 3829,2880 3939,2849 4044,2812 4143,2770 4234,2724 4318,2673 4394,2619 4460,2561 4517,2501 4564,2438 4601,2373 4627,2306 4643,2239 4648,2171 4641,2103 4624,2035 4597,1969 4558,1904 4510,1842 4451,1781 4384,1724 4307,1670 4222,1621 4129,1575 4030,1534 3924,1498 3813,1467 3697,1441 3578,1421 3550,1417" fill="none" style="stroke-width: 8;stroke-linecap: round;stroke-dashoffset: 0;stroke-miterlimit:10;stroke-linejoin: round;stroke: white"/>
		<polygon points="3216,2573 2392,1934 2293,1976 2201,2022 2117,2072 2041,2126 1974,2184 1950,2207" fill-rule="evenodd" fill="#073E7F"/>
		<polygon points="3216,2573 2392,1934 2293,1976 2201,2022 2117,2072 2041,2126 1974,2184 1950,2207" fill="none" style="stroke-width: 8;stroke-linecap: round;stroke-dashoffset: 0;stroke-miterlimit:10;stroke-linejoin: round;stroke: white"/>
		<polygon points="2392,1934 3216,2573 3216,2176 2392,1537" fill-rule="evenodd" fill="#021832"/>
		<polygon points="2392,1934 3216,2573 3216,2176 2392,1537" fill="none" style="stroke-width: 8;stroke-linecap: round;stroke-dashoffset: 0;stroke-miterlimit:10;stroke-linejoin: round;stroke: white"/>
		<polygon points="1950,2207 3216,2573 3216,2176 1950,1810" fill-rule="evenodd" fill="#021832"/>
		<polygon points="1950,2207 3216,2573 3216,2176 1950,1810" fill="none" style="stroke-width: 8;stroke-linecap: round;stroke-dashoffset: 0;stroke-miterlimit:10;stroke-linejoin: round;stroke: white"/>
		<polygon points="3216,2176 2392,1537 2293,1579 2201,1625 2117,1675 2041,1729 1974,1787 1950,1810" fill-rule="evenodd" fill="#073E7F"/>
		<polygon points="3216,2176 2392,1537 2293,1579 2201,1625 2117,1675 2041,1729 1974,1787 1950,1810" fill="none" style="stroke-width: 8;stroke-linecap: round;stroke-dashoffset: 0;stroke-miterlimit:10;stroke-linejoin: round;stroke: white"/>
		<polygon points="3216,2573 1950,2207 1929,2229" fill-rule="evenodd" fill="#BADE86"/>
		<polygon points="3216,2573 1950,2207 1929,2229" fill="none" style="stroke-width: 8;stroke-linecap: round;stroke-dashoffset: 0;stroke-miterlimit:10;stroke-linejoin: round;stroke: white"/>
		<polygon points="1950,2207 3216,2573 3216,2176 1950,1810" fill-rule="evenodd" fill="#4A5835"/>
		<polygon points="1950,2207 3216,2573 3216,2176 1950,1810" fill="none" style="stroke-width: 8;stroke-linecap: round;stroke-dashoffset: 0;stroke-miterlimit:10;stroke-linejoin: round;stroke: white"/>
		<polygon points="1929,2229 3216,2573 3216,2176 1929,1832" fill-rule="evenodd" fill="#4A5835"/>
		<polygon points="1929,2229 3216,2573 3216,2176 1929,1832" fill="none" style="stroke-width: 8;stroke-linecap: round;stroke-dashoffset: 0;stroke-miterlimit:10;stroke-linejoin: round;stroke: white"/>
		<polygon points="3216,2176 1950,1810 1929,1832" fill-rule="evenodd" fill="#BADE86"/>
		<polygon points="3216,2176 1950,1810 1929,1832" fill="none" style="stroke-width: 8;stroke-linecap: round;stroke-dashoffset: 0;stroke-miterlimit:10;stroke-linejoin: round;stroke: white"/>
		<polygon points="3216,2573 1929,2229 1884,2285" fill-rule="evenodd" fill="#624794"/>
		<polygon points="3216,2573 1929,2229 1884,2285" fill="none" style="stroke-width: 8;stroke-linecap: round;stroke-dashoffset: 0;stroke-miterlimit:10;stroke-linejoin: round;stroke: white"/>
		<polygon points="1929,2229 3216,2573 3216,2176 1929,1832" fill-rule="evenodd" fill="#271C3B"/>
		<polygon points="1929,2229 3216,2573 3216,2176 1929,1832" fill="none" style="stroke-width: 8;stroke-linecap: round;stroke-dashoffset: 0;stroke-miterlimit:10;stroke-linejoin: round;stroke: white"/>
		<polygon points="1884,2285 3216,2573 3216,2176 1884,1888" fill-rule="evenodd" fill="#271C3B"/>
		<polygon points="1884,2285 3216,2573 3216,2176 1884,1888" fill="none" style="stroke-width: 8;stroke-linecap: round;stroke-dashoffset: 0;stroke-miterlimit:10;stroke-linejoin: round;stroke: white"/>
		<polygon points="3216,2176 1929,1832 1884,1888" fill-rule="evenodd" fill="#624794"/>
		<polygon points="3216,2176 1929,1832 1884,1888" fill="none" style="stroke-width: 8;stroke-linecap: round;stroke-dashoffset: 0;stroke-miterlimit:10;stroke-linejoin: round;stroke: white"/>
		<polygon points="3216,2573 1884,2285 1843,2350 1813,2416 1805,2438" fill-rule="evenodd" fill="#8AA570"/>
		<polygon points="3216,2573 1884,2285 1843,2350 1813,2416 1805,2438" fill="none" style="stroke-width: 8;stroke-linecap: round;stroke-dashoffset: 0;stroke-miterlimit:10;stroke-linejoin: round;stroke: white"/>
		<polygon points="1884,2285 3216,2573 3216,2176 1884,1888" fill-rule="evenodd" fill="#37422C"/>
		<polygon points="1884,2285 3216,2573 3216,2176 1884,1888" fill="none" style="stroke-width: 8;stroke-linecap: round;stroke-dashoffset: 0;stroke-miterlimit:10;stroke-linejoin: round;stroke: white"/>
		<polygon points="1805,2438 3216,2573 3216,2176 1805,2041" fill-rule="evenodd" fill="#37422C"/>
		<polygon points="1805,2438 3216,2573 3216,2176 1805,2041" fill="none" style="stroke-width: 8;stroke-linecap: round;stroke-dashoffset: 0;stroke-miterlimit:10;stroke-linejoin: round;stroke: white"/>
		<polygon points="3216,2176 1884,1888 1843,1953 1813,2019 1805,2041" fill-rule="evenodd" fill="#8AA570"/>
		<polygon points="3216,2176 1884,1888 1843,1953 1813,2019 1805,2041" fill="none" style="stroke-width: 8;stroke-linecap: round;stroke-dashoffset: 0;stroke-miterlimit:10;stroke-linejoin: round;stroke: white"/>
		<polygon points="3216,2573 1805,2438 1789,2506 1783,2574 1789,2642 1796,2676" fill-rule="evenodd" fill="#2B8AAA"/>
		<polygon points="3216,2573 1805,2438 1789,2506 1783,2574 1789,2642 1796,2676" fill="none" style="stroke-width: 8;stroke-linecap: round;stroke-dashoffset: 0;stroke-miterlimit:10;stroke-linejoin: round;stroke: white"/>
		<polygon points="1805,2438 3216,2573 3216,2176 1805,2041" fill-rule="evenodd" fill="#113744"/>
		<polygon points="1805,2438 3216,2573 3216,2176 1805,2041" fill="none" style="stroke-width: 8;stroke-linecap: round;stroke-dashoffset: 0;stroke-miterlimit:10;stroke-linejoin: round;stroke: white"/>
		<polygon points="1796,2676 3216,2573 3216,2176 1796,2279" fill-rule="evenodd" fill="#113744"/>
		<polygon points="1796,2676 3216,2573 3216,2176 1796,2279" fill="none" style="stroke-width: 8;stroke-linecap: round;stroke-dashoffset: 0;stroke-miterlimit:10;stroke-linejoin: round;stroke: white"/>
		<defs>
			<linearGradient gradientUnits="userSpaceOnUse" x1="1783.000000" y1="2177.000000" x2="3788.000000" y2="2177.000000" gradientTransform="matrix(0.999999 -0 -0 0.999999 -0.00102145 -0.0020429)" id="Grad_2">
				<stop offset="0.000000" stop-color="#24748f"/>
				<stop offset="0.000000" stop-color="#24748f"/>
				<stop offset="1.000000" stop-color="#113744"/>
				<stop offset="1.000000" stop-color="#113744"/>
			</linearGradient>
		</defs>
		<polygon points="1783,2177 1789,2244 1796,2280 1796,2676 1789,2640 1783,2573" fill-rule="evenodd" fill="url(#Grad_2)"/>
		<polygon points="1783,2177 1789,2244 1796,2280 1796,2676 1789,2640 1783,2573" fill="none" style="stroke-width: 8;stroke-linecap: round;stroke-dashoffset: 0;stroke-miterlimit:10;stroke-linejoin: round;stroke: white"/>
		<polygon points="3216,2176 1805,2041 1789,2109 1783,2177 1789,2245 1796,2279" fill-rule="evenodd" fill="#2B8AAA"/>
		<polygon points="3216,2176 1805,2041 1789,2109 1783,2177 1789,2245 1796,2279" fill="none" style="stroke-width: 8;stroke-linecap: round;stroke-dashoffset: 0;stroke-miterlimit:10;stroke-linejoin: round;stroke: white"/>
		<polygon points="3216,2573 1796,2676 1818,2743 1851,2809 1894,2873 1947,2934 2010,2993 2082,3049 2134,3084" fill-rule="evenodd" fill="#E995EB"/>
		<polygon points="3216,2573 1796,2676 1818,2743 1851,2809 1894,2873 1947,2934 2010,2993 2082,3049 2134,3084" fill="none" style="stroke-width: 8;stroke-linecap: round;stroke-dashoffset: 0;stroke-miterlimit:10;stroke-linejoin: round;stroke: white"/>
		<polygon points="1796,2676 3216,2573 3216,2176 1796,2279" fill-rule="evenodd" fill="#5D3B5E"/>
		<polygon points="1796,2676 3216,2573 3216,2176 1796,2279" fill="none" style="stroke-width: 8;stroke-linecap: round;stroke-dashoffset: 0;stroke-miterlimit:10;stroke-linejoin: round;stroke: white"/>
		<polygon points="2134,3084 3216,2573 3216,2176 2134,2687" fill-rule="evenodd" fill="#9C649E"/>
		<polygon points="2134,3084 3216,2573 3216,2176 2134,2687" fill="none" style="stroke-width: 8;stroke-linecap: round;stroke-dashoffset: 0;stroke-miterlimit:10;stroke-linejoin: round;stroke: white"/>
		<defs>
			<linearGradient gradientUnits="userSpaceOnUse" x1="1783.000000" y1="2177.000000" x2="3788.000000" y2="2177.000000" gradientTransform="matrix(0.999999 -0 -0 0.999999 -0.000562471 -0.000562471)" id="Grad_3">
				<stop offset="0.000000" stop-color="#c47dc6"/>
				<stop offset="0.000000" stop-color="#c47dc6"/>
				<stop offset="1.000000" stop-color="#5d3b5e"/>
				<stop offset="1.000000" stop-color="#5d3b5e"/>
			</linearGradient>
		</defs>
		<polygon points="1796,2280 1818,2347 1851,2413 1894,2477 1947,2538 2010,2597 2082,2653 2134,2688 2134,3084 2082,3049 2010,2993 1947,2934 1894,2873 1851,2809 1818,2743 1796,2676" fill-rule="evenodd" fill="url(#Grad_3)"/>
		<polygon points="1796,2280 1818,2347 1851,2413 1894,2477 1947,2538 2010,2597 2082,2653 2134,2688 2134,3084 2082,3049 2010,2993 1947,2934 1894,2873 1851,2809 1818,2743 1796,2676" fill="none" style="stroke-width: 8;stroke-linecap: round;stroke-dashoffset: 0;stroke-miterlimit:10;stroke-linejoin: round;stroke: white"/>
		<polygon points="3216,2176 1796,2279 1818,2346 1851,2412 1894,2476 1947,2537 2010,2596 2082,2652 2134,2687" fill-rule="evenodd" fill="#E995EB"/>
		<polygon points="3216,2176 1796,2279 1818,2346 1851,2412 1894,2476 1947,2537 2010,2596 2082,2652 2134,2687" fill="none" style="stroke-width: 8;stroke-linecap: round;stroke-dashoffset: 0;stroke-miterlimit:10;stroke-linejoin: round;stroke: white"/>
		<polygon points="3216,2573 3328,3350 3452,3342 3473,3340" fill-rule="evenodd" fill="#7CA0D4"/>
		<polygon points="3216,2573 3328,3350 3452,3342 3473,3340" fill="none" style="stroke-width: 8;stroke-linecap: round;stroke-dashoffset: 0;stroke-miterlimit:10;stroke-linejoin: round;stroke: white"/>
		<polygon points="3473,3340 3216,2573 3216,2176 3473,2943" fill-rule="evenodd" fill="#314054"/>
		<polygon points="3473,3340 3216,2573 3216,2176 3473,2943" fill="none" style="stroke-width: 8;stroke-linecap: round;stroke-dashoffset: 0;stroke-miterlimit:10;stroke-linejoin: round;stroke: white"/>
		<polygon points="3328,3350 3216,2573 3216,2176 3328,2953" fill-rule="evenodd" fill="#314054"/>
		<polygon points="3328,3350 3216,2573 3216,2176 3328,2953" fill="none" style="stroke-width: 8;stroke-linecap: round;stroke-dashoffset: 0;stroke-miterlimit:10;stroke-linejoin: round;stroke: white"/>
		<defs>
			<linearGradient gradientUnits="userSpaceOnUse" x1="1783.000000" y1="2177.000000" x2="3788.000000" y2="2177.000000" gradientTransform="matrix(0.999999 -0 -0 0.999999 -0.000652543 -0.000870057)" id="Grad_4">
				<stop offset="0.000000" stop-color="#6886b2"/>
				<stop offset="0.000000" stop-color="#6886b2"/>
				<stop offset="1.000000" stop-color="#314054"/>
				<stop offset="1.000000" stop-color="#314054"/>
			</linearGradient>
		</defs>
		<polygon points="3328,2954 3452,2946 3473,2944 3473,3340 3452,3342 3328,3350" fill-rule="evenodd" fill="url(#Grad_4)"/>
		<polygon points="3328,2954 3452,2946 3473,2944 3473,3340 3452,3342 3328,3350" fill="none" style="stroke-width: 8;stroke-linecap: round;stroke-dashoffset: 0;stroke-miterlimit:10;stroke-linejoin: round;stroke: white"/>
		<polygon points="3216,2176 3328,2953 3452,2945 3473,2943" fill-rule="evenodd" fill="#7CA0D4"/>
		<polygon points="3216,2176 3328,2953 3452,2945 3473,2943" fill="none" style="stroke-width: 8;stroke-linecap: round;stroke-dashoffset: 0;stroke-miterlimit:10;stroke-linejoin: round;stroke: white"/>
		<polygon points="3216,2573 2134,3084 2220,3133 2313,3178 2414,3219 2520,3254 2632,3285 2748,3310 2868,3329 2990,3343 3114,3351 3239,3352 3328,3350" fill-rule="evenodd" fill="#A48AD4"/>
		<polygon points="3216,2573 2134,3084 2220,3133 2313,3178 2414,3219 2520,3254 2632,3285 2748,3310 2868,3329 2990,3343 3114,3351 3239,3352 3328,3350" fill="none" style="stroke-width: 8;stroke-linecap: round;stroke-dashoffset: 0;stroke-miterlimit:10;stroke-linejoin: round;stroke: white"/>
		<polygon points="2134,3084 3216,2573 3216,2176 2134,2687" fill-rule="evenodd" fill="#6E5C8E"/>
		<polygon points="2134,3084 3216,2573 3216,2176 2134,2687" fill="none" style="stroke-width: 8;stroke-linecap: round;stroke-dashoffset: 0;stroke-miterlimit:10;stroke-linejoin: round;stroke: white"/>
		<polygon points="3328,3350 3216,2573 3216,2176 3328,2953" fill-rule="evenodd" fill="#413754"/>
		<polygon points="3328,3350 3216,2573 3216,2176 3328,2953" fill="none" style="stroke-width: 8;stroke-linecap: round;stroke-dashoffset: 0;stroke-miterlimit:10;stroke-linejoin: round;stroke: white"/>
		<defs>
			<linearGradient gradientUnits="userSpaceOnUse" x1="1783.000000" y1="2177.000000" x2="3788.000000" y2="2177.000000" gradientTransform="matrix(0.999999 -0 -0 0.999999 -0.000651433 -0.000868577)" id="Grad_5">
				<stop offset="0.000000" stop-color="#8a74b2"/>
				<stop offset="0.000000" stop-color="#8a74b2"/>
				<stop offset="1.000000" stop-color="#413754"/>
				<stop offset="1.000000" stop-color="#413754"/>
			</linearGradient>
		</defs>
		<polygon points="2134,2688 2220,2737 2313,2782 2414,2823 2520,2858 2632,2889 2748,2914 2868,2933 2990,2947 3114,2955 3239,2956 3328,2954 3328,3350 3239,3352 3114,3351 2990,3343 2868,3329 2748,3310 2632,3285 2520,3254 2414,3219 2313,3178 2220,3133 2134,3084" fill-rule="evenodd" fill="url(#Grad_5)"/>
		<polygon points="2134,2688 2220,2737 2313,2782 2414,2823 2520,2858 2632,2889 2748,2914 2868,2933 2990,2947 3114,2955 3239,2956 3328,2954 3328,3350 3239,3352 3114,3351 2990,3343 2868,3329 2748,3310 2632,3285 2520,3254 2414,3219 2313,3178 2220,3133 2134,3084" fill="none" style="stroke-width: 8;stroke-linecap: round;stroke-dashoffset: 0;stroke-miterlimit:10;stroke-linejoin: round;stroke: white"/>
		<polygon points="3216,2176 2134,2687 2220,2736 2313,2781 2414,2822 2520,2857 2632,2888 2748,2913 2868,2932 2990,2946 3114,2954 3239,2955 3328,2953" fill-rule="evenodd" fill="#A48AD4"/>
		<polygon points="3216,2176 2134,2687 2220,2736 2313,2781 2414,2822 2520,2857 2632,2888 2748,2913 2868,2932 2990,2946 3114,2954 3239,2955 3328,2953" fill="none" style="stroke-width: 8;stroke-linecap: round;stroke-dashoffset: 0;stroke-miterlimit:10;stroke-linejoin: round;stroke: white"/>
		<text x="1441" dominant-baseline="auto" y="1795" fill="black" font-family="宋体,'MS PGothic',SimSun" font-size="133" font-weight="400" olab:comment="" olab:scope="Layer0" class="Layer0 Layer">
			<tspan x="1441" style="font-kerning:none">1.3</tspan>
		</text>
		<text x="1642" dominant-baseline="auto" y="1795" fill="black" font-family="宋体,'MS PGothic',SimSun" font-size="133" font-weight="400" olab:comment="" olab:scope="Layer0" class="Layer0 Layer">
			<tspan x="1642" style="font-kerning:none">%</tspan>
		</text>
		<text x="1712" dominant-baseline="auto" y="1564" fill="black" font-family="宋体,'MS PGothic',SimSun" font-size="133" font-weight="400" olab:comment="" olab:scope="Layer0" class="Layer0 Layer">
			<tspan x="1712" style="font-kerning:none">7.5</tspan>
		</text>
		<text x="1913" dominant-baseline="auto" y="1564" fill="black" font-family="宋体,'MS PGothic',SimSun" font-size="133" font-weight="400" olab:comment="" olab:scope="Layer0" class="Layer0 Layer">
			<tspan x="1913" style="font-kerning:none">%</tspan>
		</text>
		<text x="2585" dominant-baseline="auto" y="1302" fill="black" font-family="宋体,'MS PGothic',SimSun" font-size="133" font-weight="400" olab:comment="" olab:scope="Layer0" class="Layer0 Layer">
			<tspan x="2585" style="font-kerning:none">9.8</tspan>
		</text>
		<text x="2786" dominant-baseline="auto" y="1302" fill="black" font-family="宋体,'MS PGothic',SimSun" font-size="133" font-weight="400" olab:comment="" olab:scope="Layer0" class="Layer0 Layer">
			<tspan x="2786" style="font-kerning:none">%</tspan>
		</text>
		<text x="1301" dominant-baseline="auto" y="2207" fill="black" font-family="宋体,'MS PGothic',SimSun" font-size="133" font-weight="400" olab:comment="" olab:scope="Layer0" class="Layer0 Layer">
			<tspan x="1301" style="font-kerning:none">4.9</tspan>
		</text>
		<text x="1502" dominant-baseline="auto" y="2207" fill="black" font-family="宋体,'MS PGothic',SimSun" font-size="133" font-weight="400" olab:comment="" olab:scope="Layer0" class="Layer0 Layer">
			<tspan x="1502" style="font-kerning:none">%</tspan>
		</text>
		<text x="1362" dominant-baseline="auto" y="1914" fill="black" font-family="宋体,'MS PGothic',SimSun" font-size="133" font-weight="400" olab:comment="" olab:scope="Layer0" class="Layer0 Layer">
			<tspan x="1362" style="font-kerning:none">3.3</tspan>
		</text>
		<text x="1563" dominant-baseline="auto" y="1914" fill="black" font-family="宋体,'MS PGothic',SimSun" font-size="133" font-weight="400" olab:comment="" olab:scope="Layer0" class="Layer0 Layer">
			<tspan x="1563" style="font-kerning:none">%</tspan>
		</text>
		<text x="1446" dominant-baseline="auto" y="3056" fill="black" font-family="宋体,'MS PGothic',SimSun" font-size="133" font-weight="400" olab:comment="" olab:scope="Layer0" class="Layer0 Layer">
			<tspan x="1446" style="font-kerning:none">9.3</tspan>
		</text>
		<text x="1647" dominant-baseline="auto" y="3056" fill="black" font-family="宋体,'MS PGothic',SimSun" font-size="133" font-weight="400" olab:comment="" olab:scope="Layer0" class="Layer0 Layer">
			<tspan x="1647" style="font-kerning:none">%</tspan>
		</text>
		<text x="2424" dominant-baseline="auto" y="3517" fill="black" font-family="宋体,'MS PGothic',SimSun" font-size="133" font-weight="400" olab:comment="" olab:scope="Layer0" class="Layer0 Layer">
			<tspan x="2424" style="font-kerning:none">14.9</tspan>
		</text>
		<text x="2692" dominant-baseline="auto" y="3517" fill="black" font-family="宋体,'MS PGothic',SimSun" font-size="133" font-weight="400" olab:comment="" olab:scope="Layer0" class="Layer0 Layer">
			<tspan x="2692" style="font-kerning:none">%</tspan>
		</text>
		<text x="3294" dominant-baseline="auto" y="3576" fill="black" font-family="宋体,'MS PGothic',SimSun" font-size="133" font-weight="400" olab:comment="" olab:scope="Layer0" class="Layer0 Layer">
			<tspan x="3294" style="font-kerning:none">1.6</tspan>
		</text>
		<text x="3495" dominant-baseline="auto" y="3576" fill="black" font-family="宋体,'MS PGothic',SimSun" font-size="133" font-weight="400" olab:comment="" olab:scope="Layer0" class="Layer0 Layer">
			<tspan x="3495" style="font-kerning:none">%</tspan>
		</text>
		<text x="4862" dominant-baseline="auto" y="2645" fill="black" font-family="宋体,'MS PGothic',SimSun" font-size="133" font-weight="400" olab:comment="" olab:scope="Layer0" class="Layer0 Layer">
			<tspan x="4862" style="font-kerning:none">43.4</tspan>
		</text>
		<text x="5130" dominant-baseline="auto" y="2645" fill="black" font-family="宋体,'MS PGothic',SimSun" font-size="133" font-weight="400" olab:comment="" olab:scope="Layer0" class="Layer0 Layer">
			<tspan x="5130" style="font-kerning:none">%</tspan>
		</text>
		<text x="3275" dominant-baseline="auto" y="1267" fill="black" font-family="宋体,'MS PGothic',SimSun" font-size="133" font-weight="400" olab:comment="" olab:scope="Layer0" class="Layer0 Layer">
			<tspan x="3275" style="font-kerning:none">3.8</tspan>
		</text>
		<text x="3476" dominant-baseline="auto" y="1267" fill="black" font-family="宋体,'MS PGothic',SimSun" font-size="133" font-weight="400" olab:comment="" olab:scope="Layer0" class="Layer0 Layer">
			<tspan x="3476" style="font-kerning:none">%</tspan>
		</text>
		<polyline points="4557,371 6179,371" style="stroke: black;stroke-width: 8;stroke-linecap:square;stroke-linejoin:miter;stroke-miterlimit:10" fill="none" olab:comment="" olab:scope="Layer0" class="Layer0 Layer"/>
		<polyline points="6179,371 6179,1809" style="stroke: black;stroke-width: 8;stroke-linecap:square;stroke-linejoin:miter;stroke-miterlimit:10" fill="none" olab:comment="" olab:scope="Layer0" class="Layer0 Layer"/>
		<polyline points="6179,1809 4557,1809" style="stroke: black;stroke-width: 8;stroke-linecap:square;stroke-linejoin:miter;stroke-miterlimit:10" fill="none" olab:comment="" olab:scope="Layer0" class="Layer0 Layer"/>
		<polyline points="4557,1809 4557,371" style="stroke: black;stroke-width: 8;stroke-linecap:square;stroke-linejoin:miter;stroke-miterlimit:10" fill="none" olab:comment="" olab:scope="Layer0" class="Layer0 Layer"/>
		<rect shape-rendering="crispEdges" x="4576" y="390" width="228" height="111" fill="#BADE86"/>
		<polygon points="4576,390 4804,390 4804,501 4576,501" fill="none" style="stroke-width: 8;stroke-linecap: round;stroke-dashoffset: 0;stroke-miterlimit:10;stroke-linejoin: round;stroke: white"/>
		<text x="4807" dominant-baseline="auto" y="488" fill="black" font-family="宋体,'MS PGothic',SimSun" font-size="117" font-weight="400" olab:comment="" olab:scope="Layer0" class="Layer0 Layer">
			<tspan x="4807" style="white-space:pre;font-kerning:none" xml:space="preserve"> </tspan>
		</text>
		<text x="4866" dominant-baseline="auto" y="488" fill="black" font-family="宋体,'MS PGothic',SimSun" font-size="117" font-weight="400" olab:comment="" olab:scope="Layer0" class="Layer0 Layer">
			<tspan x="4866" style="font-kerning:none">word_problem</tspan>
		</text>
		<rect shape-rendering="crispEdges" x="4576" y="519" width="228" height="111" fill="#073E7F"/>
		<polygon points="4576,519 4804,519 4804,630 4576,630" fill="none" style="stroke-width: 8;stroke-linecap: round;stroke-dashoffset: 0;stroke-miterlimit:10;stroke-linejoin: round;stroke: white"/>
		<text x="4807" dominant-baseline="auto" y="617" fill="black" font-family="宋体,'MS PGothic',SimSun" font-size="117" font-weight="400" olab:comment="" olab:scope="Layer0" class="Layer0 Layer">
			<tspan x="4807" style="white-space:pre;font-kerning:none" xml:space="preserve"> </tspan>
		</text>
		<text x="4866" dominant-baseline="auto" y="617" fill="black" font-family="宋体,'MS PGothic',SimSun" font-size="117" font-weight="400" olab:comment="" olab:scope="Layer0" class="Layer0 Layer">
			<tspan x="4866" style="font-kerning:none">geometry</tspan>
		</text>
		<rect shape-rendering="crispEdges" x="4576" y="648" width="228" height="111" fill="#7CA0D4"/>
		<polygon points="4576,648 4804,648 4804,759 4576,759" fill="none" style="stroke-width: 8;stroke-linecap: round;stroke-dashoffset: 0;stroke-miterlimit:10;stroke-linejoin: round;stroke: white"/>
		<text x="4807" dominant-baseline="auto" y="746" fill="black" font-family="宋体,'MS PGothic',SimSun" font-size="117" font-weight="400" olab:comment="" olab:scope="Layer0" class="Layer0 Layer">
			<tspan x="4807" style="white-space:pre;font-kerning:none" xml:space="preserve"> </tspan>
		</text>
		<text x="4866" dominant-baseline="auto" y="746" fill="black" font-family="宋体,'MS PGothic',SimSun" font-size="117" font-weight="400" olab:comment="" olab:scope="Layer0" class="Layer0 Layer">
			<tspan x="4866" style="font-kerning:none">probability</tspan>
		</text>
		<rect shape-rendering="crispEdges" x="4576" y="777" width="228" height="111" fill="#A48AD4"/>
		<polygon points="4576,777 4804,777 4804,888 4576,888" fill="none" style="stroke-width: 8;stroke-linecap: round;stroke-dashoffset: 0;stroke-miterlimit:10;stroke-linejoin: round;stroke: white"/>
		<text x="4807" dominant-baseline="auto" y="875" fill="black" font-family="宋体,'MS PGothic',SimSun" font-size="117" font-weight="400" olab:comment="" olab:scope="Layer0" class="Layer0 Layer">
			<tspan x="4807" style="white-space:pre;font-kerning:none" xml:space="preserve"> </tspan>
		</text>
		<text x="4866" dominant-baseline="auto" y="875" fill="black" font-family="宋体,'MS PGothic',SimSun" font-size="117" font-weight="400" olab:comment="" olab:scope="Layer0" class="Layer0 Layer">
			<tspan x="4866" style="font-kerning:none">algebra</tspan>
		</text>
		<rect shape-rendering="crispEdges" x="4576" y="906" width="228" height="111" fill="#E995EB"/>
		<polygon points="4576,906 4804,906 4804,1017 4576,1017" fill="none" style="stroke-width: 8;stroke-linecap: round;stroke-dashoffset: 0;stroke-miterlimit:10;stroke-linejoin: round;stroke: white"/>
		<text x="4807" dominant-baseline="auto" y="1004" fill="black" font-family="宋体,'MS PGothic',SimSun" font-size="117" font-weight="400" olab:comment="" olab:scope="Layer0" class="Layer0 Layer">
			<tspan x="4807" style="white-space:pre;font-kerning:none" xml:space="preserve"> </tspan>
		</text>
		<text x="4866" dominant-baseline="auto" y="1004" fill="black" font-family="宋体,'MS PGothic',SimSun" font-size="117" font-weight="400" olab:comment="" olab:scope="Layer0" class="Layer0 Layer">
			<tspan x="4866" style="font-kerning:none">precalculus</tspan>
		</text>
		<rect shape-rendering="crispEdges" x="4576" y="1035" width="228" height="111" fill="#2B8AAA"/>
		<polygon points="4576,1035 4804,1035 4804,1146 4576,1146" fill="none" style="stroke-width: 8;stroke-linecap: round;stroke-dashoffset: 0;stroke-miterlimit:10;stroke-linejoin: round;stroke: white"/>
		<text x="4807" dominant-baseline="auto" y="1133" fill="black" font-family="宋体,'MS PGothic',SimSun" font-size="117" font-weight="400" olab:comment="" olab:scope="Layer0" class="Layer0 Layer">
			<tspan x="4807" style="white-space:pre;font-kerning:none" xml:space="preserve"> </tspan>
		</text>
		<text x="4866" dominant-baseline="auto" y="1133" fill="black" font-family="宋体,'MS PGothic',SimSun" font-size="117" font-weight="400" olab:comment="" olab:scope="Layer0" class="Layer0 Layer">
			<tspan x="4866" style="white-space:pre;font-kerning:none" xml:space="preserve">Number Theory</tspan>
		</text>
		<rect shape-rendering="crispEdges" x="4576" y="1164" width="228" height="111" fill="#8AA570"/>
		<polygon points="4576,1164 4804,1164 4804,1275 4576,1275" fill="none" style="stroke-width: 8;stroke-linecap: round;stroke-dashoffset: 0;stroke-miterlimit:10;stroke-linejoin: round;stroke: white"/>
		<text x="4807" dominant-baseline="auto" y="1262" fill="black" font-family="宋体,'MS PGothic',SimSun" font-size="117" font-weight="400" olab:comment="" olab:scope="Layer0" class="Layer0 Layer">
			<tspan x="4807" style="white-space:pre;font-kerning:none" xml:space="preserve"> </tspan>
		</text>
		<text x="4866" dominant-baseline="auto" y="1262" fill="black" font-family="宋体,'MS PGothic',SimSun" font-size="117" font-weight="400" olab:comment="" olab:scope="Layer0" class="Layer0 Layer">
			<tspan x="4866" style="white-space:pre;font-kerning:none" xml:space="preserve">Intermediate Algebra</tspan>
		</text>
		<rect shape-rendering="crispEdges" x="4576" y="1293" width="228" height="111" fill="#624794"/>
		<polygon points="4576,1293 4804,1293 4804,1404 4576,1404" fill="none" style="stroke-width: 8;stroke-linecap: round;stroke-dashoffset: 0;stroke-miterlimit:10;stroke-linejoin: round;stroke: white"/>
		<text x="4807" dominant-baseline="auto" y="1391" fill="black" font-family="宋体,'MS PGothic',SimSun" font-size="117" font-weight="400" olab:comment="" olab:scope="Layer0" class="Layer0 Layer">
			<tspan x="4807" style="white-space:pre;font-kerning:none" xml:space="preserve"> </tspan>
		</text>
		<text x="4866" dominant-baseline="auto" y="1391" fill="black" font-family="宋体,'MS PGothic',SimSun" font-size="117" font-weight="400" olab:comment="" olab:scope="Layer0" class="Layer0 Layer">
			<tspan x="4866" style="white-space:pre;font-kerning:none" xml:space="preserve">Counting &amp; Probability</tspan>
		</text>
		<rect shape-rendering="crispEdges" x="4576" y="1422" width="228" height="111" fill="#BADE86"/>
		<polygon points="4576,1422 4804,1422 4804,1533 4576,1533" fill="none" style="stroke-width: 8;stroke-linecap: round;stroke-dashoffset: 0;stroke-miterlimit:10;stroke-linejoin: round;stroke: white"/>
		<text x="4807" dominant-baseline="auto" y="1520" fill="black" font-family="宋体,'MS PGothic',SimSun" font-size="117" font-weight="400" olab:comment="" olab:scope="Layer0" class="Layer0 Layer">
			<tspan x="4807" style="white-space:pre;font-kerning:none" xml:space="preserve"> </tspan>
		</text>
		<text x="4866" dominant-baseline="auto" y="1520" fill="black" font-family="宋体,'MS PGothic',SimSun" font-size="117" font-weight="400" olab:comment="" olab:scope="Layer0" class="Layer0 Layer">
			<tspan x="4866" style="font-kerning:none">Prealgebra</tspan>
		</text>
		<rect shape-rendering="crispEdges" x="4576" y="1551" width="228" height="111" fill="#073E7F"/>
		<polygon points="4576,1551 4804,1551 4804,1662 4576,1662" fill="none" style="stroke-width: 8;stroke-linecap: round;stroke-dashoffset: 0;stroke-miterlimit:10;stroke-linejoin: round;stroke: white"/>
		<text x="4807" dominant-baseline="auto" y="1649" fill="black" font-family="宋体,'MS PGothic',SimSun" font-size="117" font-weight="400" olab:comment="" olab:scope="Layer0" class="Layer0 Layer">
			<tspan x="4807" style="white-space:pre;font-kerning:none" xml:space="preserve"> </tspan>
		</text>
		<text x="4866" dominant-baseline="auto" y="1649" fill="black" font-family="宋体,'MS PGothic',SimSun" font-size="117" font-weight="400" olab:comment="" olab:scope="Layer0" class="Layer0 Layer">
			<tspan x="4866" style="font-kerning:none">function</tspan>
		</text>
		<rect shape-rendering="crispEdges" x="4576" y="1680" width="228" height="111" fill="#7CA0D4"/>
		<polygon points="4576,1680 4804,1680 4804,1791 4576,1791" fill="none" style="stroke-width: 8;stroke-linecap: round;stroke-dashoffset: 0;stroke-miterlimit:10;stroke-linejoin: round;stroke: white"/>
		<text x="4807" dominant-baseline="auto" y="1778" fill="black" font-family="宋体,'MS PGothic',SimSun" font-size="117" font-weight="400" olab:comment="" olab:scope="Layer0" class="Layer0 Layer">
			<tspan x="4807" style="white-space:pre;font-kerning:none" xml:space="preserve"> </tspan>
		</text>
		<text x="4866" dominant-baseline="auto" y="1778" fill="black" font-family="宋体,'MS PGothic',SimSun" font-size="117" font-weight="400" olab:comment="" olab:scope="Layer0" class="Layer0 Layer">
			<tspan x="4866" style="font-kerning:none">Combinatorics</tspan>
		</text>
	</svg>
</svg>

